# xmcd
#
# Track frame offsets:
#	150
#	17122
#	32733
#	46965
#	63822
#	82725
#	93962
#	107438
#	122589
#	137507
#	159493
#	177351
#	196029
#
# Disc length: 2869 seconds
#
# Revision: 1
# Processed by: cddbd v1.5.2PL0 Copyright (c) Steve Scherf et al.
# Submitted via: audiograbber 1.83.01
#
DISCID=920b330d
DTITLE=Alaska Kalan - Zen.. and the Art of Blues
DYEAR=2006
DGENRE=Blues
TTITLE0=Good City
TTITLE1=Down South
TTITLE2=Penny
TTITLE3=Survivor's guilt
TTITLE4=Lonesome Home
TTITLE5=Ramblings From My Mind
TTITLE6=Put Me Down
TTITLE7=I Won't Go Back No More
TTITLE8=Fat Maggie
TTITLE9=Make Me Burn
TTITLE10=99 Days
TTITLE11=Wake Me Up
TTITLE12=Burnside
EXTD=Recorded live at the Blueroom Studio in Hyvinkää, Finland \n18 and 19.7.2006
EXTD=except finale of "Fat Maggie", Recorded by Marko Pölönen on Newland st. i
EXTD=n Hyvinkää, 2.7.2006\nMixed and Mastered by Mauno Oikarinen\nProduced by Gav
EXTD=in Kalan\n\nAll songs written, performed, and arranged by Gavin Kalan.\n"L
EXTD=onesome Home Blues" features Maxwell Levi Eaton on harmonica.\n\nwww.nordi
EXTD=cblues.fi
EXTT0=
EXTT1=
EXTT2=
EXTT3=
EXTT4=Feat. Maxwell Levi Eaton on harmonica
EXTT5=
EXTT6=
EXTT7=
EXTT8=
EXTT9=
EXTT10=
EXTT11=
EXTT12=
PLAYORDER=
